<svg xmlns="http://www.w3.org/2000/svg" viewBox="0 0 100 100" width="512" height="512">
  <path d="M 12,66 C 8,54 18,46 30,46 L 70,46 C 82,46 92,54 88,66 C 86,74 74,76 62,76 L 38,76 C 26,76 14,74 12,66 Z" fill="#fff" stroke="#000" stroke-width="5" stroke-linejoin="round" stroke-linecap="round"></path>
  <path d="M 20,52 C 16,46 22,42 30,42 L 70,42 C 78,42 84,46 80,52 C 78,57 70,58 62,58 L 38,58 C 30,58 22,57 20,52 Z" fill="#FF2D78" stroke="#000" stroke-width="5" stroke-linejoin="round" stroke-linecap="round"></path>
  <path d="M 26,50 L 36,46 L 46,52 L 56,46 L 66,52 L 74,48" fill="none" stroke="#FFE135" stroke-width="4" stroke-linecap="round" stroke-linejoin="round"></path>
</svg>