<svg xmlns="http://www.w3.org/2000/svg" viewBox="0 0 100 100" width="512" height="512">
  <path d="M 22,68 C 18,54 34,46 48,50 C 50,40 62,40 64,50 C 78,50 82,64 70,72 C 76,74 74,82 62,82 L 34,82 C 22,82 20,74 22,68 Z" fill="#FFE135" stroke="#000" stroke-width="5" stroke-linejoin="round" stroke-linecap="round"></path>
  <circle cx="62" cy="42" r="14" fill="#FFE135" stroke="#000" stroke-width="5" stroke-linejoin="round" stroke-linecap="round"></circle>
  <circle cx="64" cy="39" r="2.8" fill="#000"></circle>
  <path d="M 74,42 L 88,40 L 74,48 Z" fill="#FF2D78" stroke="#000" stroke-width="5" stroke-linejoin="round" stroke-linecap="round"></path>
  <path d="M 40,66 C 48,60 58,60 62,68 C 56,72 46,72 40,66 Z" fill="none" stroke="#000" stroke-width="3.5" stroke-linejoin="round"></path>
</svg>