<svg xmlns="http://www.w3.org/2000/svg" viewBox="0 0 100 100" width="512" height="512">
  <path d="M 30,38 C 14,38 14,58 30,60" fill="none" stroke="#000" stroke-width="5" stroke-linejoin="round" stroke-linecap="round"></path>
  <path d="M 70,38 C 86,38 86,58 70,60" fill="none" stroke="#000" stroke-width="5" stroke-linejoin="round" stroke-linecap="round"></path>
  <path d="M 28,36 L 72,36 C 70,58 60,68 50,68 C 40,68 30,58 28,36 Z" fill="#FFE135" stroke="#000" stroke-width="6" stroke-linejoin="round" stroke-linecap="round"></path>
  <rect x="45" y="68" width="10" height="10" fill="#FFE135" stroke="#000" stroke-width="5"></rect>
  <path d="M 34,86 L 66,86 L 60,78 L 40,78 Z" fill="#FFE135" stroke="#000" stroke-width="6" stroke-linejoin="round" stroke-linecap="round"></path>
  <path d="M 50,18 C 42,14 34,18 34,26 C 30,28 30,36 36,38 C 42,42 58,42 64,38 C 70,36 70,28 66,26 C 66,18 58,14 50,18 Z" fill="#FF2D78" stroke="#000" stroke-width="5" stroke-linejoin="round" stroke-linecap="round"></path>
  <path d="M 50,18 C 48,26 52,32 50,40" fill="none" stroke="#000" stroke-width="3" stroke-linecap="round"></path>
</svg>